<?xml version="1.0" encoding="iso-8859-1"?>
<!-- Uploaded to: SVG Repo, www.svgrepo.com, Generator: SVG Repo Mixer Tools -->
<svg fill="#000000" height="800px" width="800px" version="1.1" id="Layer_1" xmlns="http://www.w3.org/2000/svg" xmlns:xlink="http://www.w3.org/1999/xlink" 
	 viewBox="0 0 511.991 511.991" xml:space="preserve">
<g>
	<g>
		<g>
			<path d="M149.152,149.333c0-30.443-3.029-66.645-25.557-104.491l-20.459-34.411C99.296,3.947,92.32,0,84.811,0
				C77.28,0,70.325,3.947,66.464,10.411l-20.48,34.411C24.117,81.6,21.152,118.293,21.152,149.333v21.333h128V149.333z"/>
			<path d="M21.156,405.346c0,7.808,2.261,15.019,5.931,21.312c-3.669,6.293-5.931,13.525-5.931,21.312v21.376
				c0,23.531,19.115,42.645,42.645,42.645h42.709c23.531,0,42.645-19.115,42.645-42.645V447.97c0-7.787-2.261-15.019-5.931-21.312
				c3.669-6.293,5.931-13.504,5.931-21.312V213.325h-128V405.346z M106.49,447.991l0.021,21.333l-42.688,0.043l-0.021-21.376H106.49
				z"/>
			<path d="M294.637,108.828l-20.48-34.411c-7.701-12.928-28.949-12.928-36.672,0l-20.48,34.432
				c-21.867,36.8-24.832,73.451-24.832,104.469l-0.043,21.333h128l0.043-21.333c0-30.421-3.029-66.645-25.536-104.469V108.828z"/>
			<path d="M191.823,405.346c0,7.808,2.261,15.019,5.931,21.312c-3.669,6.293-5.931,13.525-5.931,21.312v21.376
				c0,23.531,19.115,42.645,42.645,42.645h42.709c23.531,0,42.645-19.115,42.645-42.645V447.97c0-7.787-2.261-15.019-5.909-21.312
				c3.648-6.272,5.909-13.483,5.909-21.248l0.235-128.085h-128L191.823,405.346z M277.156,447.991l0.021,21.333l-42.688,0.043
				l-0.021-21.376H277.156z"/>
			<path d="M465.303,172.847v-0.021l-20.48-34.411c-7.701-12.928-28.949-12.928-36.672,0l-20.48,34.432
				c-21.867,36.8-24.832,73.451-24.832,104.469l-0.043,21.333h128l0.043-21.333C490.839,246.895,487.81,210.671,465.303,172.847z"/>
			<path d="M362.49,405.346c0,7.808,2.261,15.019,5.931,21.312c-3.669,6.293-5.931,13.525-5.931,21.312v21.376
				c0,23.531,19.115,42.645,42.645,42.645h42.709c23.531,0,42.645-19.115,42.645-42.645V447.97c0-7.787-2.261-14.997-5.909-21.291
				c3.648-6.293,5.909-13.483,5.909-21.248l0.171-64.107h-128L362.49,405.346z M447.823,447.991l0.021,21.333l-42.688,0.043
				l-0.021-21.376H447.823z"/>
		</g>
	</g>
</g>
</svg>